<?xml version="1.0" encoding="UTF-8" standalone="no"?>
<!-- Created with Inkscape (http://www.inkscape.org/) -->

<svg
   xmlns:dc="http://purl.org/dc/elements/1.1/"
   xmlns:cc="http://creativecommons.org/ns#"
   xmlns:rdf="http://www.w3.org/1999/02/22-rdf-syntax-ns#"
   xmlns:svg="http://www.w3.org/2000/svg"
   xmlns="http://www.w3.org/2000/svg"
   xmlns:sodipodi="http://sodipodi.sourceforge.net/DTD/sodipodi-0.dtd"
   xmlns:inkscape="http://www.inkscape.org/namespaces/inkscape"
   width="200"
   height="200"
   id="svg3275"
   version="1.1"
   inkscape:version="0.48.4 r9939"
   sodipodi:docname="New document 5">
  <defs
     id="defs3277" />
  <sodipodi:namedview
     id="base"
     pagecolor="#ffffff"
     bordercolor="#666666"
     borderopacity="1.0"
     inkscape:pageopacity="0.0"
     inkscape:pageshadow="2"
     inkscape:zoom="2.5669361"
     inkscape:cx="96.677862"
     inkscape:cy="115.60245"
     inkscape:current-layer="layer3"
     showgrid="true"
     inkscape:document-units="px"
     inkscape:grid-bbox="true"
     fit-margin-top="0"
     fit-margin-left="0"
     fit-margin-right="0"
     fit-margin-bottom="0"
     inkscape:window-width="1366"
     inkscape:window-height="716"
     inkscape:window-x="-8"
     inkscape:window-y="-8"
     inkscape:window-maximized="1" />
  <metadata
     id="metadata3280">
    <rdf:RDF>
      <cc:Work
         rdf:about="">
        <dc:format>image/svg+xml</dc:format>
        <dc:type
           rdf:resource="http://purl.org/dc/dcmitype/StillImage" />
        <dc:title></dc:title>
      </cc:Work>
    </rdf:RDF>
  </metadata>
  <g
     id="layer1"
     inkscape:label="Layer 1"
     inkscape:groupmode="layer"
     transform="translate(38.37979,100.17855)"
     style="display:none">
    <path
       sodipodi:type="arc"
       style="fill:#d7f4d7;fill-opacity:1;stroke:#87de87;stroke-width:11.44032955;stroke-linecap:round;stroke-linejoin:round;stroke-miterlimit:4;stroke-opacity:1;stroke-dasharray:none"
       id="path3414"
       sodipodi:cx="-126.15619"
       sodipodi:cy="-211.35745"
       sodipodi:rx="343.83746"
       sodipodi:ry="343.83746"
       d="m 217.68127,-211.35745 a 343.83746,343.83746 0 1 1 -687.67492,0 343.83746,343.83746 0 1 1 687.67492,0 z"
       transform="matrix(0.24771428,0,0,0.24771428,96.446576,53.009506)" />
  </g>
  <g
     inkscape:groupmode="layer"
     id="layer2"
     inkscape:label="Layer"
     style="display:none">
    <g
       transform="translate(35.074183,115.60471)"
       id="g3361">
      <path
         style="fill:#ffffff;fill-opacity:1;stroke:#000000;stroke-width:0.99999994;stroke-linecap:round;stroke-linejoin:round;stroke-miterlimit:4;stroke-opacity:1;stroke-dasharray:none"
         d="m 66.975194,-43.789327 c -1.283681,0.20508 -7.723646,1.29197 -10.791954,2.16736 -3.767745,1.07495 -8.607323,3.05667 -12.333148,4.26924 -3.086849,1.00461 -7.438379,1.03285 -9.606092,3.45138 -2.430901,2.712179 -1.800182,11.518598 -1.918765,11.993458 l 16.485422,7.537276 c -0.166673,-1.501735 8.865031,-10.612902 9.932308,-11.918747 0,0 7.277613,-0.512711 8.700641,-1.106278 1.423032,-0.593561 10.791535,-3.419154 10.791532,-3.419157 l -0.0468,-0.140548 c -0.08557,-0.256981 8.050265,1.355473 8.990935,1.315387 0.94698,-0.04036 7.5355,0.04091 7.5355,0.04091 3.77926,2.412074 7.344037,2.323355 9.072667,2.629503 9.09785,1.611277 9.0047,-4.083115 8.45877,-5.368604 -0.31124,-0.73287 -10.03652,-5.14731 -14.402257,-7.22117 -1.0844,-0.51512 -2.14247,-1.18394 -3.29456,-1.52101 -0.90903,-0.26596 -2.54438,-0.42582 -3.4786,-0.58128 -1.52582,-0.25391 -4.96815,-1.39088 -6.493217,-1.64927 -1.989807,-0.33713 -4.642396,-0.56872 -6.648648,-0.78732 -1.374231,-0.14974 -3.817574,-1.20953 -5.191309,-1.12634 -1.050315,0.0636 -3.351242,1.04998 -5.762429,1.4352 z"
         id="path3382"
         sodipodi:nodetypes="csssccsssssssssssssss"
         inkscape:connector-curvature="0" />
      <path
         style="fill:#ffffff;fill-opacity:1;stroke:#000000;stroke-width:0.99999994;stroke-linecap:round;stroke-linejoin:round;stroke-miterlimit:4;stroke-opacity:1;stroke-dasharray:none"
         d="m 65.503564,-52.271247 c -1.514839,0.24222 -9.11447,1.52593 -12.735298,2.55985 -4.446222,1.2696 -10.15728,3.61018 -14.554028,5.04233 -3.642708,1.18654 -8.777835,1.21989 -11.335896,4.07639 -2.868643,3.20332 -2.124347,13.604462 -2.264284,14.165313 l 19.454013,8.902178 c -0.196687,-1.773679 10.909937,-10.975458 12.169405,-12.517773 0,0 8.139568,-2.164858 9.818849,-2.865918 1.679281,-0.70104 12.734805,-4.03831 12.734803,-4.03832 l -0.05523,-0.166 c -0.100979,-0.30351 9.499915,1.60094 10.609965,1.55359 1.11751,-0.0477 8.89244,0.0483 8.89244,0.0483 4.459807,2.84887 8.666507,2.74409 10.706407,3.10567 10.73613,1.903061 10.62621,-4.82251 9.98198,-6.34078 -0.36729,-0.86559 -11.84383,-6.07942 -16.99571,-8.52884 -1.27968,-0.6084 -2.528277,-1.39833 -3.887837,-1.79645 -1.07271,-0.31411 -3.00254,-0.50292 -4.10501,-0.68653 -1.80057,-0.29989 -5.86277,-1.64275 -7.66246,-1.94793 -2.348115,-0.39818 -5.478367,-0.67171 -7.845889,-0.9299 -1.621698,-0.17686 -4.505018,-1.42856 -6.12613,-1.3303 -1.239449,0.0751 -3.954711,1.24012 -6.80009,1.6951 z"
         id="path3380"
         sodipodi:nodetypes="csssccsssssssssssssss"
         inkscape:connector-curvature="0" />
      <path
         style="fill:#ffffff;fill-opacity:1;stroke:#000000;stroke-width:0.99999994;stroke-linecap:round;stroke-linejoin:round;stroke-miterlimit:4;stroke-opacity:1;stroke-dasharray:none"
         d="m 71.111691,-57.528867 c -1.51484,0.24222 -9.11447,1.52593 -12.735298,2.55985 -4.44622,1.2696 -10.338016,3.14294 -14.554026,5.04233 -5.745757,2.58858 -18.914139,4.0998 -19.047073,7.93198 -0.415087,11.966017 -2.124347,23.769194 -2.264284,24.330043 l 24.361125,-12.829318 c -0.196687,-1.773675 9.858411,-3.614785 11.117879,-5.157105 0,0 11.995157,-1.81435 13.674438,-2.51541 1.679281,-0.70105 12.734805,-4.03831 12.734802,-4.03832 l -0.05523,-0.166 c -0.100978,-0.30351 9.499909,1.60094 10.609969,1.55359 1.1175,-0.0477 8.892437,0.0483 8.892437,0.0483 4.45981,2.84887 8.66651,2.74408 10.70642,3.10567 10.73613,1.90306 10.62621,-4.82251 9.98198,-6.34078 -0.36729,-0.86559 -11.84384,-6.07942 -16.99573,-8.52884 -1.27968,-0.6084 -2.52827,-1.39833 -3.88783,-1.79645 -1.07272,-0.31411 -3.00255,-0.50292 -4.104997,-0.68653 -1.80058,-0.29989 -5.86278,-1.64275 -7.66247,-1.94793 -2.34812,-0.39818 -5.47837,-0.67171 -7.845892,-0.9299 -1.621698,-0.17686 -4.505018,-1.42856 -6.12613,-1.3303 -1.239449,0.0751 -3.954711,1.24012 -6.80009,1.6951 z"
         id="path3378"
         sodipodi:nodetypes="csssccsssssssssssssss"
         inkscape:connector-curvature="0" />
      <path
         style="fill:#ffffff;fill-opacity:1;stroke:#000000;stroke-width:0.99999994;stroke-linecap:round;stroke-linejoin:round;stroke-miterlimit:4;stroke-opacity:1;stroke-dasharray:none"
         d="m 66.30122,-55.134797 c -1.514839,0.24222 -9.11447,1.52593 -12.735298,2.55985 -4.44622,1.2696 -10.157281,3.61018 -14.554029,5.04233 -3.642709,1.18654 -8.777835,1.21989 -11.335896,4.07639 -2.868643,3.20332 -2.124348,13.60446 -2.264284,14.165309 -0.139937,0.560844 -10.60346,34.5832734 -10.603464,34.5832784 L -14.216717,37.01932 12.95466,60.535951 c 0,0 20.364083,-21.271346 23.668009,-23.260971 5.055901,-3.044675 11.148186,-1.792284 17.907836,-6.880112 6.929524,-5.215684 15.932433,-12.464485 17.751657,-13.445969 1.81922,-0.981476 12.056083,-8.8345426 12.056092,-8.8345426 0,0 10.083949,-6.849556 11.903169,-7.41039701 1.81921,-0.560841 8.806717,-6.20157499 8.806717,-6.20157799 0,0 2.2546,-7.5212614 3.20638,-9.6768104 2.14437,-4.856409 7.77369,-9.931912 4.23918,-13.889145 -2.41609,-2.705053 -10.66142,-0.927011 -12.07258,0.321733 -1.087897,0.962686 -7.061827,7.642737 -8.504277,11.899912 -0.39236,1.157984 -1.1171,1.66099 -1.1171,1.66099 0,0 -7.922948,4.829082 -11.763222,5.3673254 -3.418137,0.479076 -7.008858,1.610547 -10.117169,0.107412 -5.3631,-2.5935174 -16.763584,-12.0143294 -17.043463,-14.5381254 -0.196687,-1.773679 2.147237,-6.769361 3.406705,-8.31168 0,0 9.892106,-2.51536 11.571387,-3.21642 1.679281,-0.70105 12.734805,-4.03831 12.734802,-4.03832 l -0.05522,-0.166 c -0.100979,-0.30351 9.4999,1.60094 10.60996,1.55359 1.1175,-0.0477 8.89244,0.0483 8.89244,0.0483 4.459807,2.84887 8.666507,2.74408 10.706417,3.10567 10.73613,1.90306 10.62621,-4.82251 9.98198,-6.34078 -0.36729,-0.86559 -11.84384,-6.07942 -16.99573,-8.52884 -1.27968,-0.6084 -2.52827,-1.39833 -3.887827,-1.79645 -1.07272,-0.31411 -3.00255,-0.50292 -4.105,-0.68653 -1.80058,-0.29989 -5.86279,-1.64275 -7.66247,-1.94793 -2.34812,-0.39818 -5.478372,-0.67171 -7.845893,-0.9299 -1.621698,-0.17686 -4.505018,-1.42856 -6.12613,-1.33031 -1.239449,0.0751 -3.954711,1.24013 -6.80009,1.69511 z"
         id="path3373"
         sodipodi:nodetypes="csssssccsssssssssssssssssssssssssssss"
         inkscape:connector-curvature="0" />
    </g>
  </g>
  <g
     inkscape:groupmode="layer"
     id="layer3"
     inkscape:label="Layer#1">
    <path
       sodipodi:type="arc"
       style="fill:#d7f4d7;fill-opacity:1;stroke:#87de87;stroke-width:11.44032955;stroke-linecap:round;stroke-linejoin:round;stroke-miterlimit:4;stroke-opacity:1;stroke-dasharray:none"
       id="path3414-4"
       sodipodi:cx="-126.15619"
       sodipodi:cy="-211.35745"
       sodipodi:rx="343.83746"
       sodipodi:ry="343.83746"
       d="m 217.68127,-211.35745 a 343.83746,343.83746 0 1 1 -687.67492,0 343.83746,343.83746 0 1 1 687.67492,0 z"
       transform="matrix(0.24771428,0,0,0.24771428,133.70746,151.06819)" />
    <path
       inkscape:connector-curvature="0"
       sodipodi:nodetypes="csssccsssssssssssssss"
       id="path3382-2"
       d="m 106.84055,71.589747 c -1.28368,0.20508 -7.723649,1.29197 -10.791956,2.16736 -3.767746,1.07495 -8.607324,3.05667 -12.333148,4.26924 -3.086849,1.00461 -7.438379,1.03285 -9.606092,3.45138 -2.430902,2.71218 -1.800182,11.5186 -1.918766,11.99346 l 16.485423,7.537283 c -0.166673,-1.501743 8.865031,-10.612913 9.932307,-11.918753 0,0 7.277612,-0.51271 8.700642,-1.10628 1.42303,-0.59356 10.79154,-3.41915 10.79153,-3.41916 l -0.0468,-0.14054 c -0.0856,-0.25699 8.05025,1.35547 8.99092,1.31538 0.94698,-0.0404 7.5355,0.0409 7.5355,0.0409 3.77926,2.41208 7.34404,2.32336 9.07267,2.62951 9.09785,1.61127 9.0047,-4.08312 8.45877,-5.36861 -0.31124,-0.73287 -10.03652,-5.14731 -14.40226,-7.22117 -1.0844,-0.51512 -2.14247,-1.18394 -3.29456,-1.52101 -0.90903,-0.26596 -2.54438,-0.42582 -3.4786,-0.58128 -1.52582,-0.25391 -4.96815,-1.39088 -6.49321,-1.64927 -1.98981,-0.33713 -4.64239,-0.56872 -6.64864,-0.78732 -1.37423,-0.14974 -3.81758,-1.20953 -5.19131,-1.12634 -1.05032,0.0636 -3.35125,1.04999 -5.76243,1.43521 z"
       style="fill:#ffffff;fill-opacity:1;stroke:#000000;stroke-width:0.99999994;stroke-linecap:round;stroke-linejoin:round;stroke-miterlimit:4;stroke-opacity:1;stroke-dasharray:none" />
    <path
       inkscape:connector-curvature="0"
       sodipodi:nodetypes="csssccsssssssssssssss"
       id="path3380-3"
       d="m 105.36892,63.107827 c -1.51484,0.24222 -9.114472,1.52593 -12.735301,2.55985 -4.446221,1.2696 -10.15728,3.61019 -14.554027,5.04233 -3.642709,1.18655 -8.777835,1.21989 -11.335896,4.07639 -2.868643,3.20332 -2.124348,13.60446 -2.264284,14.16531 l 19.454012,8.90218 c -0.196686,-1.77368 10.909938,-10.97546 12.169405,-12.51777 0,0 8.139571,-2.16486 9.818851,-2.86591 1.67928,-0.70105 12.73481,-4.03832 12.7348,-4.03832 l -0.0552,-0.166 c -0.10098,-0.30352 9.4999,1.60093 10.60995,1.55358 1.11751,-0.0477 8.89244,0.0483 8.89244,0.0483 4.45982,2.84887 8.66651,2.74409 10.70642,3.10567 10.73613,1.90306 10.62621,-4.82251 9.98198,-6.34078 -0.36729,-0.86559 -11.84384,-6.07942 -16.99573,-8.52884 -1.27967,-0.6084 -2.52827,-1.39833 -3.88783,-1.79644 -1.07271,-0.31412 -3.00254,-0.50293 -4.105,-0.68654 -1.80058,-0.29989 -5.86278,-1.64275 -7.66247,-1.94793 -2.34812,-0.39818 -5.47836,-0.67171 -7.84588,-0.9299 -1.6217,-0.17686 -4.50502,-1.42856 -6.12613,-1.3303 -1.23945,0.0751 -3.95471,1.24012 -6.80009,1.6951 z"
       style="fill:#ffffff;fill-opacity:1;stroke:#000000;stroke-width:0.99999994;stroke-linecap:round;stroke-linejoin:round;stroke-miterlimit:4;stroke-opacity:1;stroke-dasharray:none" />
    <path
       inkscape:connector-curvature="0"
       sodipodi:nodetypes="csssccsssssssssssssss"
       id="path3378-2"
       d="m 110.97704,57.850207 c -1.51484,0.24222 -9.11447,1.52593 -12.735294,2.55985 -4.44622,1.2696 -10.338016,3.14294 -14.554026,5.04233 -5.745757,2.58858 -18.914139,4.0998 -19.047072,7.93198 -0.415087,11.96602 -2.124348,23.7692 -2.264285,24.33005 l 24.361125,-12.82932 c -0.196686,-1.77368 9.858412,-3.61479 11.11788,-5.15711 0,0 11.995152,-1.81435 13.674442,-2.5154 1.67928,-0.70105 12.73479,-4.03832 12.73479,-4.03832 l -0.0552,-0.16601 c -0.10098,-0.30351 9.4999,1.60094 10.60996,1.55359 1.1175,-0.0477 8.89244,0.0483 8.89244,0.0483 4.45981,2.84887 8.66651,2.74409 10.70642,3.10567 10.73613,1.90306 10.62621,-4.82251 9.98198,-6.34078 -0.36729,-0.86559 -11.84384,-6.07942 -16.99573,-8.52884 -1.27968,-0.6084 -2.52827,-1.39833 -3.88783,-1.79644 -1.07272,-0.31412 -3.00255,-0.50293 -4.105,-0.68654 -1.80058,-0.29989 -5.86279,-1.64275 -7.66247,-1.94793 -2.34812,-0.39818 -5.47837,-0.67171 -7.84589,-0.9299 -1.6217,-0.17686 -4.50501,-1.42856 -6.12612,-1.3303 -1.23945,0.0751 -3.95472,1.24012 -6.8001,1.6951 z"
       style="fill:#ffffff;fill-opacity:1;stroke:#000000;stroke-width:0.99999994;stroke-linecap:round;stroke-linejoin:round;stroke-miterlimit:4;stroke-opacity:1;stroke-dasharray:none" />
    <path
       inkscape:connector-curvature="0"
       sodipodi:nodetypes="csssssccsssssssssssssssssssssssssssss"
       id="path3373-2"
       d="m 106.16657,60.244277 c -1.51484,0.24222 -9.114467,1.52593 -12.735295,2.55985 -4.44622,1.2696 -10.157281,3.61018 -14.554028,5.04233 -3.64271,1.18654 -8.777836,1.21989 -11.335897,4.07639 -2.868643,3.20332 -2.124347,13.60446 -2.264284,14.16531 -0.139937,0.56084 -10.60346,34.583273 -10.603463,34.583273 l -29.024967,31.72696 27.171377,23.51664 c 0,0 20.364083,-21.27135 23.66801,-23.26097 5.055901,-3.04468 11.148185,-1.79229 17.907835,-6.88012 6.929522,-5.21568 15.932432,-12.46448 17.751652,-13.44597 1.81923,-0.98147 12.05608,-8.83454 12.05609,-8.83454 0,0 10.08394,-6.84956 11.90317,-7.4104 1.81921,-0.56084 8.80672,-6.20157 8.80672,-6.20157 0,0 2.25459,-7.52126 3.20638,-9.67681 2.14437,-4.856413 7.77368,-9.931913 4.23917,-13.889153 -2.41608,-2.70505 -10.66141,-0.92701 -12.07257,0.32174 -1.0879,0.96268 -7.06183,7.64273 -8.50428,11.89991 -0.39236,1.15798 -1.1171,1.660993 -1.1171,1.660993 0,0 -7.92295,4.82908 -11.76321,5.36732 -3.41814,0.47908 -7.00886,1.61055 -10.11718,0.10742 -5.36309,-2.59352 -16.763579,-12.014333 -17.043458,-14.538133 -0.196686,-1.77368 2.147237,-6.76936 3.406705,-8.31167 0,0 9.892103,-2.51537 11.571383,-3.21642 1.67929,-0.70105 12.73481,-4.03832 12.73481,-4.03832 l -0.0552,-0.16601 c -0.10098,-0.30351 9.49989,1.60094 10.60995,1.55359 1.1175,-0.0477 8.89244,0.0483 8.89244,0.0483 4.45981,2.84887 8.66651,2.74409 10.70642,3.10567 10.73613,1.90306 10.62621,-4.82251 9.98198,-6.34078 -0.36729,-0.86559 -11.84384,-6.07942 -16.99573,-8.52884 -1.27968,-0.6084 -2.52827,-1.39833 -3.88783,-1.79645 -1.07272,-0.31411 -3.00255,-0.50292 -4.10501,-0.68653 -1.80057,-0.29989 -5.86278,-1.64275 -7.66247,-1.94793 -2.34811,-0.39818 -5.47835,-0.67171 -7.84587,-0.9299 -1.6217,-0.17686 -4.50503,-1.42856 -6.12614,-1.33031 -1.23945,0.0751 -3.95471,1.24013 -6.80009,1.69511 z"
       style="fill:#ffffff;fill-opacity:1;stroke:#000000;stroke-width:0.99999994;stroke-linecap:round;stroke-linejoin:round;stroke-miterlimit:4;stroke-opacity:1;stroke-dasharray:none" />
  </g>
</svg>
