<?xml version="1.0" encoding="UTF-8" standalone="no"?>
<!-- Created with Inkscape (http://www.inkscape.org/) -->

<svg
   xmlns:dc="http://purl.org/dc/elements/1.1/"
   xmlns:cc="http://creativecommons.org/ns#"
   xmlns:rdf="http://www.w3.org/1999/02/22-rdf-syntax-ns#"
   xmlns:svg="http://www.w3.org/2000/svg"
   xmlns="http://www.w3.org/2000/svg"
   xmlns:sodipodi="http://sodipodi.sourceforge.net/DTD/sodipodi-0.dtd"
   xmlns:inkscape="http://www.inkscape.org/namespaces/inkscape"
   width="200"
   height="200"
   id="svg3524"
   version="1.1"
   inkscape:version="0.48.4 r9939"
   sodipodi:docname="paper-yellow.svg">
  <defs
     id="defs3526" />
  <sodipodi:namedview
     id="base"
     pagecolor="#ffffff"
     bordercolor="#666666"
     borderopacity="1.0"
     inkscape:pageopacity="0.0"
     inkscape:pageshadow="2"
     inkscape:zoom="1.9033873"
     inkscape:cx="123.52006"
     inkscape:cy="121.00541"
     inkscape:current-layer="layer1"
     showgrid="true"
     inkscape:document-units="px"
     inkscape:grid-bbox="true"
     inkscape:window-width="1366"
     inkscape:window-height="716"
     inkscape:window-x="-8"
     inkscape:window-y="-8"
     inkscape:window-maximized="1" />
  <metadata
     id="metadata3529">
    <rdf:RDF>
      <cc:Work
         rdf:about="">
        <dc:format>image/svg+xml</dc:format>
        <dc:type
           rdf:resource="http://purl.org/dc/dcmitype/StillImage" />
        <dc:title></dc:title>
      </cc:Work>
    </rdf:RDF>
  </metadata>
  <g
     id="layer1"
     inkscape:label="Layer 1"
     inkscape:groupmode="layer"
     transform="translate(0,136)">
    <path
       transform="matrix(0.24771428,0,0,0.24771428,134.21851,23.36415)"
       d="m 217.68127,-211.35745 a 343.83746,343.83746 0 1 1 -687.67492,0 343.83746,343.83746 0 1 1 687.67492,0 z"
       sodipodi:ry="343.83746"
       sodipodi:rx="343.83746"
       sodipodi:cy="-211.35745"
       sodipodi:cx="-126.15619"
       id="use3420"
       style="fill:#ffd5d5;fill-opacity:1;stroke:#ff8080;stroke-width:11.44032955;stroke-linecap:round;stroke-linejoin:round;stroke-miterlimit:4;stroke-opacity:1;stroke-dasharray:none"
       sodipodi:type="arc" />
    <path
       inkscape:connector-curvature="0"
       sodipodi:nodetypes="csssssssssssscscsssssssssscc"
       id="path2432"
       d="m 13.738117,-0.38264981 c 0,0 23.093513,-9.88419019 30.274155,-12.57916019 3.384221,-1.27013 8.393574,-1.68449 11.540903,-3.462269 3.663627,-2.069409 8.272835,-5.786979 10.386813,-9.425072 0.926197,-1.59396 3.892775,-15.662711 5.578104,-22.120065 0.311029,-1.191709 3.272234,-8.309407 5.578104,-11.925599 3.011957,-4.723514 9.153232,-10.704986 12.502643,-15.195523 1.100785,-1.475813 1.96805,-3.891534 3.269925,-5.193412 2.603747,-2.60374 6.921686,-5.29409 10.386816,-6.53984 1.69731,-0.6102 3.52566,-0.87928 5.1934,-0.19235 0.60835,0.25057 1.46448,1.24687 2.11583,1.15409 4.5746,-0.65161 13.64067,-1.35159 18.6578,1.15409 2.30698,1.15216 4.51105,4.19229 5.57811,6.539847 0.93635,2.060023 -0.40607,4.675777 -0.69613,6.158205 2.03475,0.998426 9.57579,10.832437 10.89059,14.615423 0.51184,1.472678 -0.0688,2.434683 0.3847,3.926352 1.20509,1.519345 3.15405,4.715831 4.03931,6.845155 1.04774,2.520126 1.60786,6.166468 2.11584,8.848026 0.69413,3.664261 2.63931,8.693141 1.73113,12.310299 -0.71389,2.843342 -4.32243,4.384933 -5.38575,7.11689 -0.18953,0.486952 -0.59875,2.124656 -0.96175,2.500529 -5.48154,5.676054 -13.90335,10.1273342 -22.69711,18.4654442 -4.26536,4.04436 -8.42189,8.7127598 -13.46439,11.7332498 -2.34813,1.40655 -6.93371,3.4827 -9.42507,4.61637 -4.449865,2.02486 -8.50673,5.61842 -13.464384,7.69393 -3.031881,1.26929 -11.376377,4.2376 -15.772569,6.3475 -8.318404,3.99232 -19.751453,11.9256 -25.19764,14.23378 L 13.738117,-0.38264981 z"
       style="fill:#ffffff;fill-opacity:1;stroke:#000000;stroke-width:0.99999994;stroke-linecap:round;stroke-linejoin:round;stroke-miterlimit:4;stroke-opacity:1;stroke-dasharray:none" />
    <path
       inkscape:connector-curvature="0"
       sodipodi:nodetypes="cc"
       id="path3224"
       d="m 134.33402,-71.852858 c -1.2646,-0.686951 -3.41319,-1.373905 -5.26663,-2.060856"
       style="fill:#ffffff;fill-opacity:0.09615383;stroke:#000000;stroke-width:0.99999994;stroke-linecap:round;stroke-linejoin:round;stroke-miterlimit:4;stroke-opacity:1;stroke-dasharray:none" />
    <path
       inkscape:connector-curvature="0"
       sodipodi:nodetypes="czc"
       id="path3226"
       d="m 114.79407,-76.508863 c 1.36055,0.510207 7.37089,-1.520527 10.83856,-0.38164 3.44436,1.131229 4.77531,6.2732 6.79319,7.556467"
       style="fill:#ffffff;fill-opacity:0.09615383;stroke:#000000;stroke-width:0.99999994;stroke-linecap:round;stroke-linejoin:round;stroke-miterlimit:4;stroke-opacity:1;stroke-dasharray:none" />
    <path
       inkscape:connector-curvature="0"
       sodipodi:nodetypes="czcc"
       id="path3228"
       d="m 129.29638,-64.067407 c 1.97067,1.379474 6.8649,0.915233 9.08302,2.442493 2.21813,1.527258 2.96053,5.765702 4.88499,8.167089 l 0,0"
       style="fill:#ffffff;fill-opacity:0.09615383;stroke:#000000;stroke-width:0.99999994;stroke-linecap:round;stroke-linejoin:round;stroke-miterlimit:4;stroke-opacity:1;stroke-dasharray:none" />
    <path
       inkscape:connector-curvature="0"
       sodipodi:nodetypes="cc"
       id="path3230"
       d="m 145.63056,-53.152511 c -1.69771,-2.094362 -2.88043,-2.901267 -4.19804,-4.045383"
       style="fill:#ffffff;fill-opacity:0.09615383;stroke:#000000;stroke-width:0.99999994;stroke-linecap:round;stroke-linejoin:round;stroke-miterlimit:4;stroke-opacity:1;stroke-dasharray:none" />
    <path
       inkscape:connector-curvature="0"
       sodipodi:nodetypes="czcc"
       id="path3232"
       d="m 148.60735,-44.603785 c -0.29127,0.582546 2.04692,3.415147 2.51882,4.961318 0.4719,1.546172 -0.15618,4.485754 0,5.26663 l 0,0"
       style="fill:#ffffff;fill-opacity:0.09615383;stroke:#000000;stroke-width:0.99999994;stroke-linecap:round;stroke-linejoin:round;stroke-miterlimit:4;stroke-opacity:1;stroke-dasharray:none" />
  </g>
</svg>
