<?xml version="1.0" encoding="UTF-8" standalone="no"?>
<!-- Created with Inkscape (http://www.inkscape.org/) -->

<svg
   xmlns:dc="http://purl.org/dc/elements/1.1/"
   xmlns:cc="http://creativecommons.org/ns#"
   xmlns:rdf="http://www.w3.org/1999/02/22-rdf-syntax-ns#"
   xmlns:svg="http://www.w3.org/2000/svg"
   xmlns="http://www.w3.org/2000/svg"
   xmlns:sodipodi="http://sodipodi.sourceforge.net/DTD/sodipodi-0.dtd"
   xmlns:inkscape="http://www.inkscape.org/namespaces/inkscape"
   width="200"
   height="200"
   id="svg3524"
   version="1.1"
   inkscape:version="0.48.4 r9939"
   sodipodi:docname="spock-blue.svg">
  <defs
     id="defs3526" />
  <sodipodi:namedview
     id="base"
     pagecolor="#ffffff"
     bordercolor="#666666"
     borderopacity="1.0"
     inkscape:pageopacity="0.0"
     inkscape:pageshadow="2"
     inkscape:zoom="1.9033873"
     inkscape:cx="123.52006"
     inkscape:cy="121.00541"
     inkscape:current-layer="layer1"
     showgrid="true"
     inkscape:document-units="px"
     inkscape:grid-bbox="true"
     inkscape:window-width="1366"
     inkscape:window-height="716"
     inkscape:window-x="-8"
     inkscape:window-y="-8"
     inkscape:window-maximized="1" />
  <metadata
     id="metadata3529">
    <rdf:RDF>
      <cc:Work
         rdf:about="">
        <dc:format>image/svg+xml</dc:format>
        <dc:type
           rdf:resource="http://purl.org/dc/dcmitype/StillImage" />
        <dc:title></dc:title>
      </cc:Work>
    </rdf:RDF>
  </metadata>
  <g
     id="layer1"
     inkscape:label="Layer 1"
     inkscape:groupmode="layer"
     transform="translate(0,136)">
    <path
       transform="matrix(0.24771428,0,0,0.24771428,134.1236,12.816871)"
       d="m 217.68127,-211.35745 a 343.83746,343.83746 0 1 1 -687.67492,0 343.83746,343.83746 0 1 1 687.67492,0 z"
       sodipodi:ry="343.83746"
       sodipodi:rx="343.83746"
       sodipodi:cy="-211.35745"
       sodipodi:cx="-126.15619"
       id="use3424"
       style="fill:#f6d5ff;fill-opacity:1;stroke:#e580ff;stroke-width:11.44032955;stroke-linecap:round;stroke-linejoin:round;stroke-miterlimit:4;stroke-opacity:1;stroke-dasharray:none"
       sodipodi:type="arc" />
    <path
       inkscape:connector-curvature="0"
       sodipodi:nodetypes="csssssssssssssssssssssssssssssssscc"
       id="path3275"
       d="m 3.3254324,8.8871905 c 0.15451,-0.33991 30.7739396,-14.2027 38.0849896,-18.46544 1.24116,-0.7236695 19.88772,-28.0794375 32.31453,-40.7778635 1.75436,-1.792715 2.35756,-4.827562 4.12812,-7.508015 1.438,-2.176984 4.10414,-3.989429 5.1046,-5.764024 3.52357,-6.250066 6.90573,-15.269188 10.38681,-21.54302 2.25249,-4.059578 5.69617,-9.216497 8.270978,-13.079687 2.22853,-3.343641 6.11943,-9.552901 8.84803,-12.502651 2.96747,-3.20797 9.01757,-3.78486 10.00211,2.50053 0.57146,3.64825 -4.34011,11.016151 -6.3475,15.580221 -1.79985,4.092195 -4.36657,9.480902 -5.96279,13.656737 -1.06623,2.789335 -1.8507,6.097603 -3.05019,9.434973 -1.09474,3.045931 -2.66368,6.116101 -2.52791,8.838122 0.0849,1.702853 0.5819,3.948867 1.92348,5.001058 1.5829,1.241467 11.79158,-8.563525 19.04248,-11.73325 3.54088,-1.547895 6.99219,-4.125464 13.65675,-7.116893 2.67299,-1.199783 5.83453,-3.514973 8.46331,-4.808708 2.53906,-1.249578 8.9331,-3.630342 11.73328,-4.039316 3.71384,-0.542414 7.52106,4.158361 5.96279,8.270981 -0.55536,1.465739 -9.03988,6.301732 -12.88734,9.040374 -5.21908,3.71498 -12.6583,8.099355 -17.31136,12.502645 -5.88432,5.568444 -18.42983,9.614064 -20.00423,12.694994 -0.24772,0.484756 0.47095,1.303201 0.96173,1.538786 0.89045,0.427451 2.30801,-0.609069 3.26993,-0.384695 2.47836,0.578094 5.49166,2.658031 7.11689,4.616361 4.70464,5.668836 -1.25337,10.377251 -2.30818,13.272041 -0.37692,1.03437 2.75943,2.7983 3.07756,6.15515 0.29677,3.13148 -1.08568,6.4715095 -3.2699,8.2709795 -2.67371,2.20273 -7.78297,3.11037 -10.00213,5.77045 -0.54952,0.65872 -0.29906,2.14813004 -0.96174,2.69288 -7.75687,6.37644 -13.967538,12.1270305 -20.004228,16.5419605 -5.94,4.34422 -17.00428,11.05621 -20.19658,10.57916 -1.80861,-0.27027 -12.57117,6.96089 -23.65885,11.9256 -6.73835,3.01722 -20.96598,12.88734 -20.96598,12.88734 L 3.3254324,8.8871905 z"
       style="fill:#ffffff;fill-opacity:1;stroke:#000000;stroke-width:0.99999994;stroke-linecap:round;stroke-linejoin:round;stroke-miterlimit:4;stroke-opacity:1;stroke-dasharray:none" />
    <path
       inkscape:connector-curvature="0"
       sodipodi:nodetypes="cc"
       id="path3277"
       d="m 122.38908,-21.119159 c -1.92705,-2.77896 -5.75017,-3.88633 -5.9628,-5.385751"
       style="fill:#ffffff;fill-opacity:0.06089747;stroke:#000000;stroke-width:0.99999994;stroke-linecap:round;stroke-linejoin:round;stroke-miterlimit:4;stroke-opacity:1;stroke-dasharray:none" />
  </g>
</svg>
