<?xml version="1.0" encoding="UTF-8" standalone="no"?>
<!-- Created with Inkscape (http://www.inkscape.org/) -->

<svg
   xmlns:dc="http://purl.org/dc/elements/1.1/"
   xmlns:cc="http://creativecommons.org/ns#"
   xmlns:rdf="http://www.w3.org/1999/02/22-rdf-syntax-ns#"
   xmlns:svg="http://www.w3.org/2000/svg"
   xmlns="http://www.w3.org/2000/svg"
   xmlns:sodipodi="http://sodipodi.sourceforge.net/DTD/sodipodi-0.dtd"
   xmlns:inkscape="http://www.inkscape.org/namespaces/inkscape"
   width="200"
   height="200"
   id="svg3524"
   version="1.1"
   inkscape:version="0.48.4 r9939"
   sodipodi:docname="New document 13">
  <defs
     id="defs3526" />
  <sodipodi:namedview
     id="base"
     pagecolor="#ffffff"
     bordercolor="#666666"
     borderopacity="1.0"
     inkscape:pageopacity="0.0"
     inkscape:pageshadow="2"
     inkscape:zoom="1.9033873"
     inkscape:cx="123.52006"
     inkscape:cy="121.00541"
     inkscape:current-layer="layer1"
     showgrid="true"
     inkscape:document-units="px"
     inkscape:grid-bbox="true"
     inkscape:window-width="1366"
     inkscape:window-height="716"
     inkscape:window-x="-8"
     inkscape:window-y="-8"
     inkscape:window-maximized="1" />
  <metadata
     id="metadata3529">
    <rdf:RDF>
      <cc:Work
         rdf:about="">
        <dc:format>image/svg+xml</dc:format>
        <dc:type
           rdf:resource="http://purl.org/dc/dcmitype/StillImage" />
        <dc:title></dc:title>
      </cc:Work>
    </rdf:RDF>
  </metadata>
  <g
     id="layer1"
     inkscape:label="Layer 1"
     inkscape:groupmode="layer"
     transform="translate(0,136)">
    <path
       transform="matrix(0.24771428,0,0,0.24771428,131.12869,10.757274)"
       d="m 217.68127,-211.35745 a 343.83746,343.83746 0 1 1 -687.67492,0 343.83746,343.83746 0 1 1 687.67492,0 z"
       sodipodi:ry="343.83746"
       sodipodi:rx="343.83746"
       sodipodi:cy="-211.35745"
       sodipodi:cx="-126.15619"
       id="use3418"
       style="fill:#d5e5ff;fill-opacity:1;stroke:#80b3ff;stroke-width:11.44032955;stroke-linecap:round;stroke-linejoin:round;stroke-miterlimit:4;stroke-opacity:1;stroke-dasharray:none"
       sodipodi:type="arc" />
    <path
       inkscape:connector-curvature="0"
       sodipodi:nodetypes="ccsssssscsssssssscssscssssssssscssssssssssssc"
       id="path3403"
       d="m 83.951328,58.649304 c -0.63227,-3.16136 0.23585,-39.180359 -0.63227,-44.259119 C 79.322178,10.272984 70.322966,6.9264144 64.561615,0.69092438 59.483944,-4.8046156 57.439453,-12.439566 52.759182,-18.277266 c -2.434485,-3.03654 -7.33388,-8.89341 -10.32713,-11.38092 -2.538423,-2.109532 -9.214312,-5.341034 -9.273337,-8.64107 -0.05633,-3.14946 4.257456,-4.407294 7.37652,-4.847427 5.417952,-0.764533 16.084433,4.821008 18.125164,7.37652 0.5624,0.704267 8.370665,7.561144 11.380919,11.802437 3.14397,-0.65842 0.834811,-11.969861 1.053792,-15.174561 0.310615,-4.545718 0.421511,-9.694856 0.210754,-10.537887 -0.210757,-0.843029 -1.264546,-6.744246 -1.475304,-9.062581 -0.21076,-2.318335 -1.89682,-9.062584 -1.89682,-10.116373 0,-1.053789 -1.05379,-8.851829 -1.05379,-10.327129 0,-1.47531 -0.02485,-5.50405 -0.421514,-8.64107 -0.389686,-3.08182 -0.975778,-9.9908 -0.421514,-14.963803 0.415107,-3.72443 4.915839,-7.31657 8.851823,-4.42591 1.618743,1.18884 2.291333,4.15956 3.161363,5.90122 -0.44883,-2.05642 -1.64971,-8.15106 -1.05378,-11.59168 1.17402,-6.77834 8.4127,-6.47496 10.32713,-2.95061 1.9366,3.56519 3.12245,11.83484 4.63667,16.649863 1.81739,5.77908 2.85051,13.8919 4.00439,20.23275 2.33509,4.737545 3.3665,12.103785 5.901222,16.4391 0.71715,1.226594 2.16509,2.622394 3.58288,2.529096 1.47827,-0.09728 1.47531,0 3.79364,-4.636671 2.31834,-4.63667 2.00816,-4.027247 3.16137,-5.901216 1.68606,-2.739853 2.52909,-5.69046 3.79364,-7.587279 0.70144,-1.05217 2.9557,-6.20639 4.0044,-9.27334 0.89939,-2.63033 1.96664,-5.33865 2.73985,-8.0088 1.14759,-3.96298 2.54543,-8.786243 4.00439,-12.645463 2.02887,-5.36672 7.72465,-5.49212 10.32713,-0.21076 1.92087,3.89813 -0.67705,9.841473 -1.4753,14.963803 2.6259,-3.65957 7.56695,-0.3219 8.21955,2.31834 0.80424,3.25372 0.27027,7.85321 -0.21076,11.17016 -0.27298,1.88239 -1.28032,4.253669 -1.68606,6.111972 -0.50554,2.315421 -1.05844,4.880403 -1.68606,7.165759 -0.59387,2.162501 -1.67179,5.439937 -2.31834,7.587281 -0.87592,2.909198 -1.38714,6.954063 -2.10757,9.905615 -0.45103,1.847833 -1.41758,4.228938 -1.68607,6.111974 -0.63371,4.444634 -0.13976,10.474775 -0.21075,14.9638 -0.057,3.60406 -0.0592,8.41187 -0.21076,12.01319 -0.27974,6.6477204 -0.36774,15.56879038 -1.4753,22.1295604 -0.55663,3.29723 -2.52901,7.4314506 -2.95061,10.7486506 -1.58657,12.48325 2.10758,42.151549 0.63227,41.940789 -1.4753,-0.21076 -46.577462,0.21076 -46.155952,-0.21076 z"
       style="fill:#ffffff;fill-opacity:1;stroke:#000000;stroke-width:1;stroke-linecap:round;stroke-linejoin:round;stroke-miterlimit:4;stroke-opacity:1;stroke-dasharray:none" />
    <path
       inkscape:connector-curvature="0"
       sodipodi:nodetypes="ccc"
       id="path3405"
       d="m 78.050108,-101.73734 c 1.73265,9.563333 4.90593,23.176783 8.64107,45.523677 l 0,0"
       style="fill:#ffffff;fill-opacity:0.13461537;stroke:#000000;stroke-width:1;stroke-linecap:round;stroke-linejoin:round;stroke-miterlimit:4;stroke-opacity:1;stroke-dasharray:none" />
    <path
       inkscape:connector-curvature="0"
       sodipodi:nodetypes="cc"
       id="path3407"
       d="m 135.79774,-93.728537 c -8.80909,24.796279 -5.16579,10.69779 -15.38532,42.151545"
       style="fill:#ffffff;fill-opacity:0.13461537;stroke:#000000;stroke-width:1;stroke-linecap:round;stroke-linejoin:round;stroke-miterlimit:4;stroke-opacity:1;stroke-dasharray:none" />
  </g>
</svg>
