<?xml version="1.0" encoding="UTF-8" standalone="no"?>
<!-- Created with Inkscape (http://www.inkscape.org/) -->

<svg
   xmlns:dc="http://purl.org/dc/elements/1.1/"
   xmlns:cc="http://creativecommons.org/ns#"
   xmlns:rdf="http://www.w3.org/1999/02/22-rdf-syntax-ns#"
   xmlns:svg="http://www.w3.org/2000/svg"
   xmlns="http://www.w3.org/2000/svg"
   xmlns:sodipodi="http://sodipodi.sourceforge.net/DTD/sodipodi-0.dtd"
   xmlns:inkscape="http://www.inkscape.org/namespaces/inkscape"
   inkscape:output_extension="org.inkscape.output.svg.inkscape"
   sodipodi:docname="lose_spock_lizard.svg"
   version="1.0"
   height="600"
   width="600"
   inkscape:version="0.48.4 r9939"
   sodipodi:version="0.32"
   id="svg2"
   inkscape:export-filename="C:\Users\Angela\workspace\RockLizardSpock\graphics\lose_spock_lizard.png"
   inkscape:export-xdpi="43.5"
   inkscape:export-ydpi="43.5">
  <sodipodi:namedview
     inkscape:window-height="716"
     inkscape:window-width="1366"
     inkscape:pageshadow="2"
     inkscape:pageopacity="0.0"
     guidetolerance="10.0"
     gridtolerance="10.0"
     objecttolerance="10.0"
     borderopacity="1.0"
     bordercolor="#666666"
     pagecolor="#ffffff"
     id="base"
     showgrid="false"
     inkscape:zoom="1"
     inkscape:cx="130.57143"
     inkscape:cy="303.76776"
     inkscape:window-x="-8"
     inkscape:window-y="-8"
     inkscape:current-layer="g12095"
     showguides="true"
     inkscape:guide-bbox="true"
     inkscape:window-maximized="1" />
  <metadata
     id="metadata7">
    <rdf:RDF>
      <cc:Work
         rdf:about="">
        <dc:format>image/svg+xml</dc:format>
        <dc:type
           rdf:resource="http://purl.org/dc/dcmitype/StillImage" />
        <dc:title></dc:title>
        <dc:date>2009-12-05</dc:date>
        <dc:creator>
          <cc:Agent>
            <dc:title>nojhan</dc:title>
          </cc:Agent>
        </dc:creator>
        <cc:license
           rdf:resource="http://creativecommons.org/licenses/by-sa/3.0/" />
        <dc:source>http://commons.wikimedia.org/wiki/Category:Rock_Paper_Scissors</dc:source>
        <dc:contributor>
          <cc:Agent>
            <dc:title>Concept by Sam Kass. Photos on Wikimedia Commons by Fluff, modified by Sertion.</dc:title>
          </cc:Agent>
        </dc:contributor>
        <dc:rights>
          <cc:Agent>
            <dc:title>nojhan</dc:title>
          </cc:Agent>
        </dc:rights>
        <dc:publisher>
          <cc:Agent>
            <dc:title>Wikimedia Commons</dc:title>
          </cc:Agent>
        </dc:publisher>
        <dc:identifier>http://commons.wikimedia.org/wiki/File:pierre_ciseaux_feuille_lézard_spock.svg</dc:identifier>
        <dc:subject>
          <rdf:Bag>
            <rdf:li>pierre</rdf:li>
            <rdf:li>feuille</rdf:li>
            <rdf:li>ciseaux</rdf:li>
            <rdf:li>lézard</rdf:li>
            <rdf:li>spock</rdf:li>
            <rdf:li>lizard</rdf:li>
            <rdf:li>rock</rdf:li>
            <rdf:li>cissors</rdf:li>
            <rdf:li>paper</rdf:li>
            <rdf:li>morra</rdf:li>
            <rdf:li>rochambeau</rdf:li>
            <rdf:li />
          </rdf:Bag>
        </dc:subject>
        <dc:description>Un diagrame de résolution du jeu « Pierre, ciseaux, feuille, lézard, Spock ».

A resolution diagram of the game &quot;Rock, Paper, Scissors, Lizard, Spock&quot;.</dc:description>
      </cc:Work>
      <cc:License
         rdf:about="http://creativecommons.org/licenses/by-sa/3.0/">
        <cc:permits
           rdf:resource="http://creativecommons.org/ns#Reproduction" />
        <cc:permits
           rdf:resource="http://creativecommons.org/ns#Distribution" />
        <cc:requires
           rdf:resource="http://creativecommons.org/ns#Notice" />
        <cc:requires
           rdf:resource="http://creativecommons.org/ns#Attribution" />
        <cc:permits
           rdf:resource="http://creativecommons.org/ns#DerivativeWorks" />
        <cc:requires
           rdf:resource="http://creativecommons.org/ns#ShareAlike" />
      </cc:License>
    </rdf:RDF>
  </metadata>
  <defs
     id="defs5">
    <marker
       style="overflow:visible"
       id="Arrow1Lstart"
       refX="0.0"
       refY="0.0"
       orient="auto"
       inkscape:stockid="Arrow1Lstart">
      <path
         transform="scale(0.8) translate(12.5,0)"
         style="fill-rule:evenodd;stroke:#000000;stroke-width:1.0pt;marker-start:none"
         d="M 0.0,0.0 L 5.0,-5.0 L -12.5,0.0 L 5.0,5.0 L 0.0,0.0 z "
         id="path3525" />
    </marker>
    <marker
       style="overflow:visible;"
       id="Arrow1Lend"
       refX="0.0"
       refY="0.0"
       orient="auto"
       inkscape:stockid="Arrow1Lend">
      <path
         transform="scale(0.8) rotate(180) translate(12.5,0)"
         style="fill-rule:evenodd;stroke:#000000;stroke-width:1.0pt;marker-start:none;"
         d="M 0.0,0.0 L 5.0,-5.0 L -12.5,0.0 L 5.0,5.0 L 0.0,0.0 z "
         id="path3528" />
    </marker>
    <inkscape:perspective
       id="perspective9"
       inkscape:persp3d-origin="372.04724 : 350.78739 : 1"
       inkscape:vp_z="744.09448 : 526.18109 : 1"
       inkscape:vp_y="0 : 1000 : 0"
       inkscape:vp_x="0 : 526.18109 : 1"
       sodipodi:type="inkscape:persp3d" />
    <inkscape:perspective
       sodipodi:type="inkscape:persp3d"
       inkscape:vp_x="0 : 526.18109 : 1"
       inkscape:vp_y="0 : 1000 : 0"
       inkscape:vp_z="744.09448 : 526.18109 : 1"
       inkscape:persp3d-origin="372.04724 : 350.78739 : 1"
       id="perspective2413" />
    <inkscape:perspective
       sodipodi:type="inkscape:persp3d"
       inkscape:vp_x="0 : 526.18109 : 1"
       inkscape:vp_y="0 : 1000 : 0"
       inkscape:vp_z="744.09448 : 526.18109 : 1"
       inkscape:persp3d-origin="372.04724 : 350.78739 : 1"
       id="perspective2426" />
    <inkscape:perspective
       sodipodi:type="inkscape:persp3d"
       inkscape:vp_x="0 : 526.18109 : 1"
       inkscape:vp_y="0 : 1000 : 0"
       inkscape:vp_z="744.09448 : 526.18109 : 1"
       inkscape:persp3d-origin="372.04724 : 350.78739 : 1"
       id="perspective3367" />
    <inkscape:perspective
       sodipodi:type="inkscape:persp3d"
       inkscape:vp_x="0 : 526.18109 : 1"
       inkscape:vp_y="0 : 1000 : 0"
       inkscape:vp_z="744.09448 : 526.18109 : 1"
       inkscape:persp3d-origin="372.04724 : 350.78739 : 1"
       id="perspective3397" />
    <clipPath
       id="clipPath3428"
       clipPathUnits="userSpaceOnUse">
      <path
         transform="matrix(0.8741007,0,0,0.8741007,245.08718,124.28294)"
         d="M 217.68127,-211.35745 A 343.83746,343.83746 0 1 1 -469.99365,-211.35745 A 343.83746,343.83746 0 1 1 217.68127,-211.35745 z"
         sodipodi:ry="343.83746"
         sodipodi:rx="343.83746"
         sodipodi:cy="-211.35745"
         sodipodi:cx="-126.15619"
         id="path3430"
         style="opacity:1;fill:none;fill-opacity:1;stroke:#000000;stroke-width:11.44032955;stroke-linecap:round;stroke-linejoin:round;stroke-miterlimit:4;stroke-dasharray:none;stroke-opacity:1"
         sodipodi:type="arc" />
    </clipPath>
    <clipPath
       id="clipPath3435"
       clipPathUnits="userSpaceOnUse">
      <path
         sodipodi:type="arc"
         style="fill:#d7f4d7;fill-opacity:1;stroke:#87de87;stroke-width:11.44032955;stroke-linecap:round;stroke-linejoin:round;stroke-miterlimit:4;stroke-opacity:1;stroke-dasharray:none"
         id="use3437"
         sodipodi:cx="-126.15619"
         sodipodi:cy="-211.35745"
         sodipodi:rx="343.83746"
         sodipodi:ry="343.83746"
         d="m 217.68127,-211.35745 a 343.83746,343.83746 0 1 1 -687.67492,0 343.83746,343.83746 0 1 1 687.67492,0 z"
         transform="matrix(0.79641981,0,0,0.79641981,851.64137,-12.712869)" />
    </clipPath>
    <clipPath
       id="clipPath3441"
       clipPathUnits="userSpaceOnUse">
      <path
         sodipodi:type="arc"
         style="fill:#d7f4d7;fill-opacity:1;stroke:#87de87;stroke-width:11.44032955;stroke-linecap:round;stroke-linejoin:round;stroke-miterlimit:4;stroke-opacity:1;stroke-dasharray:none"
         id="use3443"
         sodipodi:cx="-126.15619"
         sodipodi:cy="-211.35745"
         sodipodi:rx="343.83746"
         sodipodi:ry="343.83746"
         d="m 217.68127,-211.35745 a 343.83746,343.83746 0 1 1 -687.67492,0 343.83746,343.83746 0 1 1 687.67492,0 z"
         transform="matrix(0.8741007,0,0,0.8741007,1073.7601,442.14707)" />
    </clipPath>
    <clipPath
       id="clipPath3447"
       clipPathUnits="userSpaceOnUse">
      <path
         sodipodi:type="arc"
         style="fill:#d7f4d7;fill-opacity:1;stroke:#87de87;stroke-width:11.44032955;stroke-linecap:round;stroke-linejoin:round;stroke-miterlimit:4;stroke-opacity:1;stroke-dasharray:none"
         id="use3449"
         sodipodi:cx="-126.15619"
         sodipodi:cy="-211.35745"
         sodipodi:rx="343.83746"
         sodipodi:ry="343.83746"
         d="m 217.68127,-211.35745 a 343.83746,343.83746 0 1 1 -687.67492,0 343.83746,343.83746 0 1 1 687.67492,0 z"
         transform="matrix(0.8741007,0,0,0.8741007,467.71574,442.14707)" />
    </clipPath>
    <clipPath
       id="clipPath3453"
       clipPathUnits="userSpaceOnUse">
      <path
         sodipodi:type="arc"
         style="fill:#d7f4d7;fill-opacity:1;stroke:#87de87;stroke-width:11.44032955;stroke-linecap:round;stroke-linejoin:round;stroke-miterlimit:4;stroke-opacity:1;stroke-dasharray:none"
         id="use3455"
         sodipodi:cx="-126.15619"
         sodipodi:cy="-211.35745"
         sodipodi:rx="343.83746"
         sodipodi:ry="343.83746"
         d="m 217.68127,-211.35745 a 343.83746,343.83746 0 1 1 -687.67492,0 343.83746,343.83746 0 1 1 687.67492,0 z"
         transform="matrix(0.8741007,0,0,0.8741007,-150.69695,543.56675)" />
    </clipPath>
    <clipPath
       id="clipPath3453-7"
       clipPathUnits="userSpaceOnUse">
      <path
         sodipodi:type="arc"
         style="fill:#e8e8e8;fill-opacity:1;stroke:#bababa;stroke-width:11.44032955;stroke-linecap:round;stroke-linejoin:round;stroke-miterlimit:4;stroke-opacity:1;stroke-dasharray:none"
         id="use3455-9"
         sodipodi:cx="-126.15619"
         sodipodi:cy="-211.35745"
         sodipodi:rx="343.83746"
         sodipodi:ry="343.83746"
         d="m 217.68127,-211.35745 a 343.83746,343.83746 0 1 1 -687.67492,0 343.83746,343.83746 0 1 1 687.67492,0 z"
         transform="matrix(0.8741007,0,0,0.8741007,-150.69695,543.56675)" />
    </clipPath>
    <clipPath
       id="clipPath3447-3"
       clipPathUnits="userSpaceOnUse">
      <path
         sodipodi:type="arc"
         style="fill:#e8e8e8;fill-opacity:1;stroke:#bababa;stroke-width:11.44032955;stroke-linecap:round;stroke-linejoin:round;stroke-miterlimit:4;stroke-opacity:1;stroke-dasharray:none"
         id="use3449-1"
         sodipodi:cx="-126.15619"
         sodipodi:cy="-211.35745"
         sodipodi:rx="343.83746"
         sodipodi:ry="343.83746"
         d="m 217.68127,-211.35745 a 343.83746,343.83746 0 1 1 -687.67492,0 343.83746,343.83746 0 1 1 687.67492,0 z"
         transform="matrix(0.8741007,0,0,0.8741007,467.71574,442.14707)" />
    </clipPath>
    <clipPath
       id="clipPath3441-9"
       clipPathUnits="userSpaceOnUse">
      <path
         sodipodi:type="arc"
         style="fill:#e8e8e8;fill-opacity:1;stroke:#bababa;stroke-width:11.44032955;stroke-linecap:round;stroke-linejoin:round;stroke-miterlimit:4;stroke-opacity:1;stroke-dasharray:none"
         id="use3443-8"
         sodipodi:cx="-126.15619"
         sodipodi:cy="-211.35745"
         sodipodi:rx="343.83746"
         sodipodi:ry="343.83746"
         d="m 217.68127,-211.35745 a 343.83746,343.83746 0 1 1 -687.67492,0 343.83746,343.83746 0 1 1 687.67492,0 z"
         transform="matrix(0.8741007,0,0,0.8741007,1073.7601,442.14707)" />
    </clipPath>
    <clipPath
       id="clipPath3428-6"
       clipPathUnits="userSpaceOnUse">
      <path
         transform="matrix(0.8741007,0,0,0.8741007,245.08718,124.28294)"
         d="m 217.68127,-211.35745 a 343.83746,343.83746 0 1 1 -687.67492,0 343.83746,343.83746 0 1 1 687.67492,0 z"
         sodipodi:ry="343.83746"
         sodipodi:rx="343.83746"
         sodipodi:cy="-211.35745"
         sodipodi:cx="-126.15619"
         id="path3430-5"
         style="fill:none;stroke:#000000;stroke-width:11.44032955;stroke-linecap:round;stroke-linejoin:round;stroke-miterlimit:4;stroke-opacity:1;stroke-dasharray:none"
         sodipodi:type="arc" />
    </clipPath>
    <clipPath
       id="clipPath3435-0"
       clipPathUnits="userSpaceOnUse">
      <path
         sodipodi:type="arc"
         style="fill:#e8e8e8;fill-opacity:1;stroke:#bababa;stroke-width:11.44032955;stroke-linecap:round;stroke-linejoin:round;stroke-miterlimit:4;stroke-opacity:1;stroke-dasharray:none"
         id="use3437-2"
         sodipodi:cx="-126.15619"
         sodipodi:cy="-211.35745"
         sodipodi:rx="343.83746"
         sodipodi:ry="343.83746"
         d="m 217.68127,-211.35745 a 343.83746,343.83746 0 1 1 -687.67492,0 343.83746,343.83746 0 1 1 687.67492,0 z"
         transform="matrix(0.79641981,0,0,0.79641981,851.64137,-12.712869)" />
    </clipPath>
  </defs>
  <g
     transform="translate(-4.5403586,-1.9250825)"
     id="g12095">
    <path
       inkscape:connector-curvature="0"
       id="path3516"
       d="m 216.58227,403.32059 62.36496,-201.18773 1.37333,0.40349 -62.38975,201.20676 -1.34854,-0.42252 z"
       style="fill:#ff0000;fill-opacity:1;fill-rule:evenodd;stroke:#ff0000;stroke-width:1.41696656;stroke-linecap:butt;stroke-linejoin:miter;stroke-miterlimit:4;stroke-opacity:1;stroke-dasharray:none" />
    <path
       inkscape:connector-curvature="0"
       id="path12205"
       d="m 275.44336,215.87476 -7.09203,3.73529 11.28796,-17.26946 -0.46064,20.62621 -3.73529,-7.09204 z"
       style="fill:#ff0000;fill-rule:evenodd;stroke:#ff0000;stroke-width:1.13357325000000000pt;marker-start:none;fill-opacity:1;stroke-opacity:1" />
    <path
       transform="matrix(0.24753557,-0.0094078,0.0094078,0.24753557,336.20051,169.54007)"
       d="m 217.68127,-211.35745 a 343.83746,343.83746 0 1 1 -687.67492,0 343.83746,343.83746 0 1 1 687.67492,0 z"
       sodipodi:ry="343.83746"
       sodipodi:rx="343.83746"
       sodipodi:cy="-211.35745"
       sodipodi:cx="-126.15619"
       id="use3420"
       style="fill:#0000ff;fill-opacity:0.12941177;stroke:#0000ff;stroke-width:11.44032955000000000;stroke-linecap:round;stroke-linejoin:round;stroke-miterlimit:4;stroke-opacity:1;stroke-dasharray:none"
       sodipodi:type="arc" />
    <g
       id="g3267"
       clip-path="url(#clipPath3453-7)"
       transform="matrix(0.28318885,-0.01076283,0.01076283,0.28318885,373.02589,13.986105)">
      <path
         sodipodi:nodetypes="csssssssssssscscsssssssssscc"
         id="path2432"
         d="m -575.83187,459.77226 c 0,0 81.48927,-34.87801 106.82735,-44.38764 11.94178,-4.48187 29.61811,-5.94402 40.72398,-12.2172 12.92771,-7.30225 29.19206,-20.42031 36.65158,-33.25792 3.26824,-5.62455 13.7363,-55.26846 19.68326,-78.0543 1.09752,-4.20514 11.54662,-29.32111 19.68326,-42.08144 10.62819,-16.6677 32.29869,-37.77431 44.11764,-53.61991 3.8843,-5.20765 6.94459,-13.73192 11.53847,-18.3258 9.18775,-9.18775 24.42431,-18.68109 36.65158,-23.07692 5.98925,-2.1532 12.4409,-3.10267 18.32579,-0.67873 2.14666,0.88419 5.16764,4.39979 7.46606,4.0724 16.14219,-2.29932 48.13332,-4.76931 65.83711,4.07239 8.14056,4.0656 15.91799,14.79318 19.68326,23.07693 3.30409,7.26913 -1.43286,16.49925 -2.45639,21.73024 7.17993,3.52311 33.78973,38.22404 38.42924,51.57293 1.80611,5.19659 -0.24287,8.59118 1.35746,13.85478 4.25237,5.36126 11.1296,16.64059 14.253396,24.15426 3.697118,8.89268 5.673579,21.7594 7.466064,31.22172 2.449373,12.92995 9.313263,30.67518 6.108597,43.43892 -2.519094,10.0332 -15.252421,15.47296 -19.004517,25.11312 -0.66879,1.71829 -2.11279,7.4972 -3.39368,8.82353 -19.34251,20.02888 -49.06028,35.73597 -80.09049,65.15837 -15.05103,14.27117 -29.71804,30.74441 -47.51132,41.40271 -8.28576,4.96323 -24.46674,12.28927 -33.25791,16.2896 -15.70209,7.14507 -30.01741,19.82553 -47.51131,27.14932 -10.69849,4.4789 -40.14342,14.95306 -55.65611,22.39819 -29.35286,14.08756 -69.69626,42.08145 -88.91403,50.22625 l -117.00834,-168.0558 z"
         style="fill:#ffffff;fill-opacity:1;stroke:#000000;stroke-width:3.52866483;stroke-linecap:round;stroke-linejoin:round;stroke-miterlimit:4;stroke-opacity:1;stroke-dasharray:none"
         inkscape:connector-curvature="0" />
      <path
         sodipodi:nodetypes="cc"
         id="path3224"
         d="m -150.28934,207.57783 c -4.46235,-2.42402 -12.044,-4.84805 -18.58417,-7.27207"
         style="fill:#ffffff;fill-opacity:0.09615383;stroke:#000000;stroke-width:3.52866483;stroke-linecap:round;stroke-linejoin:round;stroke-miterlimit:4;stroke-opacity:1;stroke-dasharray:none"
         inkscape:connector-curvature="0" />
      <path
         sodipodi:nodetypes="czc"
         id="path3226"
         d="m -219.23929,191.14835 c 4.80094,1.80035 26.00942,-5.36543 38.24567,-1.34668 12.15399,3.99173 16.85047,22.13602 23.97089,26.66424"
         style="fill:#ffffff;fill-opacity:0.09615383;stroke:#000000;stroke-width:3.52866483;stroke-linecap:round;stroke-linejoin:round;stroke-miterlimit:4;stroke-opacity:1;stroke-dasharray:none"
         inkscape:connector-curvature="0" />
      <path
         sodipodi:nodetypes="czcc"
         id="path3228"
         d="m -168.0655,235.05008 c 6.95386,4.8677 24.22394,3.22955 32.05095,8.61874 7.82702,5.38918 10.4467,20.34523 17.23749,28.81892 l 0,0"
         style="fill:#ffffff;fill-opacity:0.09615383;stroke:#000000;stroke-width:3.52866483;stroke-linecap:round;stroke-linejoin:round;stroke-miterlimit:4;stroke-opacity:1;stroke-dasharray:none"
         inkscape:connector-curvature="0" />
      <path
         sodipodi:nodetypes="cc"
         id="path3230"
         d="m -110.42765,273.56509 c -5.99064,-7.3903 -10.16407,-10.2376 -14.81347,-14.2748"
         style="fill:#ffffff;fill-opacity:0.09615383;stroke:#000000;stroke-width:3.52866483;stroke-linecap:round;stroke-linejoin:round;stroke-miterlimit:4;stroke-opacity:1;stroke-dasharray:none"
         inkscape:connector-curvature="0" />
      <path
         sodipodi:nodetypes="czcc"
         id="path3232"
         d="m -99.923554,303.73068 c -1.027796,2.05561 7.222911,12.05091 8.888075,17.50683 1.665164,5.45592 -0.551089,15.82872 0,18.58417 l 0,0"
         style="fill:#ffffff;fill-opacity:0.09615383;stroke:#000000;stroke-width:3.52866483;stroke-linecap:round;stroke-linejoin:round;stroke-miterlimit:4;stroke-opacity:1;stroke-dasharray:none"
         inkscape:connector-curvature="0" />
    </g>
    <path
       transform="matrix(-0.24771147,0.00117991,0.00117991,0.24771147,162.21572,537.9474)"
       d="m 217.68127,-211.35745 a 343.83746,343.83746 0 1 1 -687.67492,0 343.83746,343.83746 0 1 1 687.67492,0 z"
       sodipodi:ry="343.83746"
       sodipodi:rx="343.83746"
       sodipodi:cy="-211.35745"
       sodipodi:cx="-126.15619"
       id="use3418"
       style="fill:#ff0000;fill-opacity:0.12941177;stroke:#ff0000;stroke-width:11.44032955000000000;stroke-linecap:round;stroke-linejoin:round;stroke-miterlimit:4;stroke-opacity:1;stroke-dasharray:none"
       sodipodi:type="arc" />
    <g
       id="g3409"
       transform="matrix(-0.31103127,0.00148152,0.00148152,0.31103127,427.12165,540.63977)"
       clip-path="url(#clipPath3435-0)">
      <path
         sodipodi:nodetypes="ccsssssscsssssssscssscssssssssscssssssssssssc"
         id="path3403"
         d="M 699.96267,141.26357 C 697.92986,131.09955 700.72094,15.295787 697.92986,-1.0328054 685.0796,-14.269898 656.14647,-25.029378 637.6233,-45.076923 c -16.32509,-17.668572 -22.89828,-42.215512 -37.9457,-60.984167 -7.82705,-9.76269 -23.57897,-28.59295 -33.20249,-36.59049 -8.16122,-6.7823 -29.6247,-17.17182 -29.81447,-27.78168 -0.18111,-10.12575 13.68804,-14.16978 23.71606,-15.58484 17.41912,-2.45803 51.71265,15.4999 58.27375,23.71606 1.80816,2.26427 26.91231,24.30964 36.5905,37.94571 10.1081,-2.11686 2.68398,-38.48399 3.38802,-48.78734 0.99865,-14.61482 1.35519,-31.16968 0.67759,-33.88009 -0.6776,-2.7104 -4.06561,-21.68325 -4.74321,-29.13687 -0.67761,-7.45362 -6.09842,-29.13688 -6.09842,-32.52489 0,-3.38801 -3.38801,-28.45928 -3.38801,-33.20249 0,-4.74322 -0.0799,-17.69592 -1.3552,-27.78167 -1.25287,-9.9083 -3.1372,-32.12118 -1.3552,-48.10973 1.3346,-11.97433 15.80479,-23.52333 28.45927,-14.22964 5.20439,3.8222 7.36679,13.37331 10.16403,18.97285 -1.44304,-6.61154 -5.30394,-26.20626 -3.38801,-37.2681 3.77457,-21.79288 27.04747,-20.81749 33.20249,-9.48642 6.22632,11.46233 10.03891,38.04988 14.90724,53.53054 5.84306,18.58017 9.1646,44.66348 12.87443,65.04977 7.50749,15.23157 10.82354,38.91458 18.97285,52.85294 2.30569,3.94359 6.96093,8.43119 11.51924,8.13123 4.75274,-0.31276 4.74321,0 12.19683,-14.90724 7.45362,-14.90724 6.45637,-12.9479 10.16403,-18.97285 5.42081,-8.80883 8.13122,-18.29525 12.19683,-24.39367 2.25519,-3.38279 9.5028,-19.95401 12.87443,-29.81448 2.89163,-8.4567 6.32289,-17.16415 8.80883,-25.74887 3.68959,-12.74128 8.18375,-28.24841 12.87443,-40.65611 6.52295,-17.25441 24.83532,-17.65757 33.20248,-0.6776 6.17573,12.53277 -2.17677,31.64106 -4.74321,48.10973 8.44247,-11.76579 24.32832,-1.03493 26.42648,7.45362 2.58569,10.46097 0.86892,25.24867 -0.67761,35.9129 -0.87767,6.05202 -4.11633,13.67587 -5.42081,19.65045 -1.62537,7.44425 -3.40298,15.69086 -5.42081,23.03845 -1.90935,6.9526 -5.37495,17.4898 -7.45363,24.39367 -2.81617,9.35329 -4.45978,22.35783 -6.77601,31.84729 -1.45009,5.94092 -4.55762,13.59635 -5.42082,19.65045 -2.03745,14.28983 -0.44936,33.67718 -0.6776,48.10973 -0.18324,11.58733 -0.19038,27.04478 -0.6776,38.623304 -0.89937,21.372922 -1.18231,50.054811 -4.74321,71.14819 -1.78959,10.600837 -8.13095,23.8926538 -9.48643,34.5576923 -5.10094,40.1345697 6.77602,135.5203637 2.03281,134.8427637 -4.74322,-0.67761 -149.75,0.6776 -148.3948,-0.67761 z"
         style="fill:#ffffff;fill-opacity:1;stroke:#000000;stroke-width:3.2150743;stroke-linecap:round;stroke-linejoin:round;stroke-miterlimit:4;stroke-opacity:1;stroke-dasharray:none"
         inkscape:connector-curvature="0" />
      <path
         sodipodi:nodetypes="ccc"
         id="path3405"
         d="m 680.98982,-374.3914 c 5.57059,30.74682 15.77293,74.51506 27.78167,146.36199 l 0,0"
         style="fill:#ffffff;fill-opacity:0.13461537;stroke:#000000;stroke-width:3.2150743;stroke-linecap:round;stroke-linejoin:round;stroke-miterlimit:4;stroke-opacity:1;stroke-dasharray:none"
         inkscape:connector-curvature="0" />
      <path
         sodipodi:nodetypes="cc"
         id="path3407"
         d="m 866.65271,-348.64253 c -28.32186,79.72189 -16.60839,34.3942 -49.46493,135.52036"
         style="fill:#ffffff;fill-opacity:0.13461537;stroke:#000000;stroke-width:3.2150743;stroke-linecap:round;stroke-linejoin:round;stroke-miterlimit:4;stroke-opacity:1;stroke-dasharray:none"
         inkscape:connector-curvature="0" />
    </g>
  </g>
</svg>
